<?xml version="1.0" standalone="no"?>
<!DOCTYPE svg PUBLIC "-//W3C//DTD SVG 20010904//EN"
 "http://www.w3.org/TR/2001/REC-SVG-20010904/DTD/svg10.dtd">
<svg version="1.0" xmlns="http://www.w3.org/2000/svg"
 width="144.000000pt" height="144.000000pt" viewBox="0 0 144.000000 144.000000"
 preserveAspectRatio="xMidYMid meet">
<metadata>
Created by potrace 1.14, written by Peter Selinger 2001-2017
</metadata>
<g transform="translate(0.000000,144.000000) scale(0.100000,-0.100000)"
fill="#000000" stroke="none">
<path d="M364 1296 c-11 -46 3 -66 47 -66 39 0 39 0 39 -40 0 -26 5 -43 14
-46 12 -5 12 -10 0 -39 -20 -49 -17 -103 10 -160 22 -47 91 -141 143 -193 29
-29 29 -33 -4 -69 -76 -81 -98 -111 -129 -170 -37 -70 -42 -114 -20 -174 10
-29 10 -37 -1 -47 -7 -7 -13 -28 -13 -47 0 -33 -1 -34 -42 -37 -41 -3 -43 -5
-46 -37 -2 -20 2 -37 10 -42 15 -10 668 -12 692 -3 9 3 16 17 16 29 0 44 -10
55 -51 55 -39 0 -39 0 -39 40 0 25 -5 43 -14 46 -11 4 -11 11 0 42 19 55 17
101 -10 157 -22 49 -96 148 -143 192 -13 12 -23 26 -23 31 0 5 16 26 36 47 58
62 112 137 135 189 22 51 22 123 -1 165 -9 17 -8 22 5 27 10 4 15 19 15 45 0
36 2 39 29 39 44 0 61 10 61 35 0 58 18 55 -361 55 l-349 0 -6 -24z"/>
</g>
</svg>
